<mxfile host="app.diagrams.net" modified="2025-03-03T12:00:00.000Z" agent="Mozilla/5.0" etag="your-etag" version="21.8.2" type="device">
  <diagram id="transformer_decoder" name="Transformer Decoder">
    <mxGraphModel dx="1422" dy="798" grid="1" gridSize="10" guides="1" tooltips="1" connect="1" arrows="1" fold="1" page="1" pageScale="1" pageWidth="850" pageHeight="1100" math="0" shadow="0">
      <root>
        <mxCell id="0" />
        <mxCell id="1" parent="0" />
        
        <!-- Title -->
        <mxCell id="2" value="&lt;font style=&quot;font-size: 20px;&quot; face=&quot;Times New Roman&quot;&gt;&lt;b&gt;Transformer Decoder&lt;/b&gt;&lt;/font&gt;" style="text;html=1;strokeColor=none;fillColor=none;align=center;verticalAlign=middle;whiteSpace=wrap;rounded=0;" vertex="1" parent="1">
          <mxGeometry x="320" y="60" width="240" height="30" as="geometry" />
        </mxCell>
        
        <!-- Main divided sections -->
        <mxCell id="3" value="" style="rounded=0;whiteSpace=wrap;html=1;fillColor=none;dashed=1;strokeColor=#004C99;strokeWidth=1;" vertex="1" parent="1">
          <mxGeometry x="320" y="100" width="470" height="310" as="geometry" />
        </mxCell>
        
        <!-- Denoising part -->
        <mxCell id="4" value="" style="rounded=0;whiteSpace=wrap;html=1;fillColor=none;dashed=1;strokeColor=#004C99;strokeWidth=1;" vertex="1" parent="1">
          <mxGeometry x="335" y="130" width="270" height="265" as="geometry" />
        </mxCell>
        
        <mxCell id="5" value="&lt;font face=&quot;Times New Roman&quot; style=&quot;font-size: 16px;&quot;&gt;Denoising part&lt;/font&gt;" style="text;html=1;strokeColor=none;fillColor=none;align=center;verticalAlign=middle;whiteSpace=wrap;rounded=0;" vertex="1" parent="1">
          <mxGeometry x="400" y="105" width="120" height="30" as="geometry" />
        </mxCell>
        
        <!-- Matching part -->
        <mxCell id="6" value="" style="rounded=0;whiteSpace=wrap;html=1;fillColor=none;dashed=1;strokeColor=#004C99;strokeWidth=1;" vertex="1" parent="1">
          <mxGeometry x="605" y="130" width="170" height="265" as="geometry" />
        </mxCell>
        
        <mxCell id="7" value="&lt;font face=&quot;Times New Roman&quot; style=&quot;font-size: 16px;&quot;&gt;Matching part&lt;/font&gt;" style="text;html=1;strokeColor=none;fillColor=none;align=center;verticalAlign=middle;whiteSpace=wrap;rounded=0;" vertex="1" parent="1">
          <mxGeometry x="630" y="105" width="120" height="30" as="geometry" />
        </mxCell>
        
        <!-- Transformer Encoder Box -->
        <mxCell id="8" value="&lt;font face=&quot;Times New Roman&quot; style=&quot;font-size: 16px;&quot;&gt;&lt;b&gt;Transformer Encoder&lt;/b&gt;&lt;/font&gt;" style="rounded=0;whiteSpace=wrap;html=1;fillColor=#ffffff;strokeColor=#000000;strokeWidth=1;" vertex="1" parent="1">
          <mxGeometry x="120" y="220" width="170" height="60" as="geometry" />
        </mxCell>
        
        <!-- Reconstruction Loss Boxes -->
        <mxCell id="9" value="&lt;font style=&quot;font-size: 12px;&quot; face=&quot;Times New Roman&quot;&gt;reconstruction loss&lt;/font&gt;" style="rounded=1;whiteSpace=wrap;html=1;fillColor=#FFFFFF;strokeColor=#000000;" vertex="1" parent="1">
          <mxGeometry x="350" y="150" width="110" height="30" as="geometry" />
        </mxCell>
        
        <mxCell id="10" value="&lt;font style=&quot;font-size: 12px;&quot; face=&quot;Times New Roman&quot;&gt;reconstruction loss&lt;/font&gt;" style="rounded=1;whiteSpace=wrap;html=1;fillColor=#FFFFFF;strokeColor=#000000;" vertex="1" parent="1">
          <mxGeometry x="480" y="150" width="110" height="30" as="geometry" />
        </mxCell>
        
        <!-- Hungarian Loss Box -->
        <mxCell id="11" value="&lt;font style=&quot;font-size: 12px;&quot; face=&quot;Times New Roman&quot;&gt;Hungarian loss&lt;/font&gt;" style="rounded=1;whiteSpace=wrap;html=1;fillColor=#FFFFFF;strokeColor=#000000;" vertex="1" parent="1">
          <mxGeometry x="635" y="150" width="110" height="30" as="geometry" />
        </mxCell>
        
        <!-- Input Boxes for Transformer Encoder -->
        <mxCell id="12" value="" style="rounded=0;whiteSpace=wrap;html=1;fillColor=#E6E6E6;strokeColor=#666666;" vertex="1" parent="1">
          <mxGeometry x="120" y="310" width="20" height="20" as="geometry" />
        </mxCell>
        
        <mxCell id="13" value="" style="rounded=0;whiteSpace=wrap;html=1;fillColor=#E6E6E6;strokeColor=#666666;" vertex="1" parent="1">
          <mxGeometry x="150" y="310" width="20" height="20" as="geometry" />
        </mxCell>
        
        <mxCell id="14" value="" style="rounded=0;whiteSpace=wrap;html=1;fillColor=#E6E6E6;strokeColor=#666666;" vertex="1" parent="1">
          <mxGeometry x="180" y="310" width="20" height="20" as="geometry" />
        </mxCell>
        
        <mxCell id="15" value="" style="rounded=0;whiteSpace=wrap;html=1;fillColor=#E6E6E6;strokeColor=#666666;" vertex="1" parent="1">
          <mxGeometry x="210" y="310" width="20" height="20" as="geometry" />
        </mxCell>
        
        <mxCell id="16" value="" style="rounded=0;whiteSpace=wrap;html=1;fillColor=#E6E6E6;strokeColor=#666666;" vertex="1" parent="1">
          <mxGeometry x="240" y="310" width="20" height="20" as="geometry" />
        </mxCell>
        
        <mxCell id="17" value="" style="rounded=0;whiteSpace=wrap;html=1;fillColor=#E6E6E6;strokeColor=#666666;" vertex="1" parent="1">
          <mxGeometry x="270" y="310" width="20" height="20" as="geometry" />
        </mxCell>
        
        <!-- Output Boxes from Transformer Encoder -->
        <mxCell id="18" value="" style="rounded=0;whiteSpace=wrap;html=1;fillColor=#E6E6E6;strokeColor=#666666;" vertex="1" parent="1">
          <mxGeometry x="120" y="170" width="20" height="20" as="geometry" />
        </mxCell>
        
        <mxCell id="19" value="" style="rounded=0;whiteSpace=wrap;html=1;fillColor=#E6E6E6;strokeColor=#666666;" vertex="1" parent="1">
          <mxGeometry x="150" y="170" width="20" height="20" as="geometry" />
        </mxCell>
        
        <mxCell id="20" value="" style="rounded=0;whiteSpace=wrap;html=1;fillColor=#E6E6E6;strokeColor=#666666;" vertex="1" parent="1">
          <mxGeometry x="180" y="170" width="20" height="20" as="geometry" />
        </mxCell>
        
        <mxCell id="21" value="" style="rounded=0;whiteSpace=wrap;html=1;fillColor=#E6E6E6;strokeColor=#666666;" vertex="1" parent="1">
          <mxGeometry x="210" y="170" width="20" height="20" as="geometry" />
        </mxCell>
        
        <mxCell id="22" value="" style="rounded=0;whiteSpace=wrap;html=1;fillColor=#E6E6E6;strokeColor=#666666;" vertex="1" parent="1">
          <mxGeometry x="240" y="170" width="20" height="20" as="geometry" />
        </mxCell>
        
        <mxCell id="23" value="" style="rounded=0;whiteSpace=wrap;html=1;fillColor=#E6E6E6;strokeColor=#666666;" vertex="1" parent="1">
          <mxGeometry x="270" y="170" width="20" height="20" as="geometry" />
        </mxCell>
        
        <!-- Denoising Group 0 Boxes -->
        <mxCell id="24" value="" style="rounded=0;whiteSpace=wrap;html=1;fillColor=#FFD966;strokeColor=#666666;" vertex="1" parent="1">
          <mxGeometry x="350" y="200" width="20" height="20" as="geometry" />
        </mxCell>
        
        <mxCell id="25" value="" style="rounded=0;whiteSpace=wrap;html=1;fillColor=#FFD966;strokeColor=#666666;" vertex="1" parent="1">
          <mxGeometry x="380" y="200" width="20" height="20" as="geometry" />
        </mxCell>
        
        <mxCell id="26" value="" style="rounded=0;whiteSpace=wrap;html=1;fillColor=#FFD966;strokeColor=#666666;" vertex="1" parent="1">
          <mxGeometry x="410" y="200" width="20" height="20" as="geometry" />
        </mxCell>
        
        <!-- Denoising Group 1 Boxes -->
        <mxCell id="27" value="" style="rounded=0;whiteSpace=wrap;html=1;fillColor=#C65911;strokeColor=#666666;" vertex="1" parent="1">
          <mxGeometry x="480" y="200" width="20" height="20" as="geometry" />
        </mxCell>
        
        <mxCell id="28" value="" style="rounded=0;whiteSpace=wrap;html=1;fillColor=#C65911;strokeColor=#666666;" vertex="1" parent="1">
          <mxGeometry x="510" y="200" width="20" height="20" as="geometry" />
        </mxCell>
        
        <mxCell id="29" value="" style="rounded=0;whiteSpace=wrap;html=1;fillColor=#C65911;strokeColor=#666666;" vertex="1" parent="1">
          <mxGeometry x="540" y="200" width="20" height="20" as="geometry" />
        </mxCell>
        
        <!-- Matching part Boxes -->
        <mxCell id="30" value="" style="rounded=0;whiteSpace=wrap;html=1;fillColor=#6AA84F;strokeColor=#666666;" vertex="1" parent="1">
          <mxGeometry x="635" y="200" width="20" height="20" as="geometry" />
        </mxCell>
        
        <mxCell id="31" value="" style="rounded=0;whiteSpace=wrap;html=1;fillColor=#6AA84F;strokeColor=#666666;" vertex="1" parent="1">
          <mxGeometry x="665" y="200" width="20" height="20" as="geometry" />
        </mxCell>
        
        <mxCell id="32" value="" style="rounded=0;whiteSpace=wrap;html=1;fillColor=#6AA84F;strokeColor=#666666;" vertex="1" parent="1">
          <mxGeometry x="695" y="200" width="20" height="20" as="geometry" />
        </mxCell>
        
        <mxCell id="33" value="" style="rounded=0;whiteSpace=wrap;html=1;fillColor=#6AA84F;strokeColor=#666666;" vertex="1" parent="1">
          <mxGeometry x="725" y="200" width="20" height="20" as="geometry" />
        </mxCell>
        
        <!-- Input Vectors Below -->
        <!-- Denoising Group 0 Input -->
        <mxCell id="34" value="" style="rounded=0;whiteSpace=wrap;html=1;fillColor=#FFD966;strokeColor=#666666;" vertex="1" parent="1">
          <mxGeometry x="350" y="330" width="20" height="20" as="geometry" />
        </mxCell>
        
        <mxCell id="35" value="" style="rounded=0;whiteSpace=wrap;html=1;fillColor=#FFD966;strokeColor=#666666;" vertex="1" parent="1">
          <mxGeometry x="380" y="330" width="20" height="20" as="geometry" />
        </mxCell>
        
        <mxCell id="36" value="" style="rounded=0;whiteSpace=wrap;html=1;fillColor=#FFD966;strokeColor=#666666;" vertex="1" parent="1">
          <mxGeometry x="410" y="330" width="20" height="20" as="geometry" />
        </mxCell>
        
        <!-- Denoising Group 1 Input -->
        <mxCell id="37" value="" style="rounded=0;whiteSpace=wrap;html=1;fillColor=#C65911;strokeColor=#666666;" vertex="1" parent="1">
          <mxGeometry x="480" y="330" width="20" height="20" as="geometry" />
        </mxCell>
        
        <mxCell id="38" value="" style="rounded=0;whiteSpace=wrap;html=1;fillColor=#C65911;strokeColor=#666666;" vertex="1" parent="1">
          <mxGeometry x="510" y="330" width="20" height="20" as="geometry" />
        </mxCell>
        
        <mxCell id="39" value="" style="rounded=0;whiteSpace=wrap;html=1;fillColor=#C65911;strokeColor=#666666